<svg width="252" height="33" viewBox="0 0 252 33" fill="none" xmlns="http://www.w3.org/2000/svg">
<path d="M16 3.5C13.4288 3.5 10.9154 4.26244 8.77759 5.6909C6.63975 7.11935 4.97351 9.14968 3.98957 11.5251C3.00563 13.9006 2.74819 16.5144 3.2498 19.0362C3.75141 21.5579 4.98953 23.8743 6.80762 25.6924C8.6257 27.5105 10.9421 28.7486 13.4638 29.2502C15.9856 29.7518 18.5995 29.4944 20.9749 28.5104C23.3503 27.5265 25.3807 25.8603 26.8091 23.7224C28.2376 21.5846 29 19.0712 29 16.5C28.9934 13.0542 27.6216 9.75145 25.1851 7.31491C22.7486 4.87837 19.4458 3.50661 16 3.5V3.5ZM17.5 22.5H17V23.5C17 23.7652 16.8946 24.0196 16.7071 24.2071C16.5196 24.3946 16.2652 24.5 16 24.5C15.7348 24.5 15.4804 24.3946 15.2929 24.2071C15.1054 24.0196 15 23.7652 15 23.5V22.5H13C12.7348 22.5 12.4804 22.3946 12.2929 22.2071C12.1054 22.0196 12 21.7652 12 21.5C12 21.2348 12.1054 20.9804 12.2929 20.7929C12.4804 20.6054 12.7348 20.5 13 20.5H17.5C17.8978 20.5 18.2794 20.342 18.5607 20.0607C18.842 19.7794 19 19.3978 19 19C19 18.6022 18.842 18.2206 18.5607 17.9393C18.2794 17.658 17.8978 17.5 17.5 17.5H14.5C13.5717 17.5 12.6815 17.1313 12.0251 16.4749C11.3688 15.8185 11 14.9283 11 14C11 13.0717 11.3688 12.1815 12.0251 11.5251C12.6815 10.8687 13.5717 10.5 14.5 10.5H15V9.5C15 9.23478 15.1054 8.98043 15.2929 8.79289C15.4804 8.60536 15.7348 8.5 16 8.5C16.2652 8.5 16.5196 8.60536 16.7071 8.79289C16.8946 8.98043 17 9.23478 17 9.5V10.5H19C19.2652 10.5 19.5196 10.6054 19.7071 10.7929C19.8946 10.9804 20 11.2348 20 11.5C20 11.7652 19.8946 12.0196 19.7071 12.2071C19.5196 12.3946 19.2652 12.5 19 12.5H14.5C14.1022 12.5 13.7206 12.658 13.4393 12.9393C13.158 13.2206 13 13.6022 13 14C13 14.3978 13.158 14.7794 13.4393 15.0607C13.7206 15.342 14.1022 15.5 14.5 15.5H17.5C18.4283 15.5 19.3185 15.8687 19.9749 16.5251C20.6313 17.1815 21 18.0717 21 19C21 19.9283 20.6313 20.8185 19.9749 21.4749C19.3185 22.1313 18.4283 22.5 17.5 22.5V22.5Z" fill="#1764D8"/>
<path d="M49.0654 25.3633C48.349 25.3633 47.9908 25.0051 47.9908 24.2887V9.09103C47.9908 8.37464 48.349 8.01645 49.0654 8.01645H58.4808C58.8134 8.01645 59.0735 8.11452 59.2612 8.31068C59.4573 8.4983 59.5554 8.75842 59.5554 9.09103C59.5554 9.80742 59.1972 10.1656 58.4808 10.1656H50.14V15.5385H55.2826C55.999 15.5385 56.3572 15.8967 56.3572 16.6131C56.3572 17.3295 55.999 17.6877 55.2826 17.6877H50.14V24.2887C50.14 25.0051 49.7818 25.3633 49.0654 25.3633Z" fill="#E1E1E6"/>
<path d="M63.2823 25.3633C62.9155 25.3633 62.6426 25.278 62.4635 25.1074C62.293 24.9283 62.2077 24.6554 62.2077 24.2887V9.11661C62.2077 8.74136 62.293 8.46845 62.4635 8.29788C62.6426 8.12732 62.9155 8.04203 63.2823 8.04203C63.6575 8.04203 63.9304 8.12732 64.101 8.29788C64.2716 8.46845 64.3568 8.74136 64.3568 9.11661V24.2887C64.3568 24.6554 64.2716 24.9283 64.101 25.1074C63.9304 25.278 63.6575 25.3633 63.2823 25.3633Z" fill="#E1E1E6"/>
<path d="M70.753 25.3633C70.0366 25.3633 69.6784 25.0051 69.6784 24.2887V9.09103C69.6784 8.37464 70.0366 8.01645 70.753 8.01645C71.1197 8.01645 71.4779 8.22966 71.8276 8.65608L82.1129 21.9093H81.5756V9.09103C81.5756 8.37464 81.9338 8.01645 82.6502 8.01645C83.3665 8.01645 83.7247 8.37464 83.7247 9.09103V24.2887C83.7247 25.0051 83.3665 25.3633 82.6502 25.3633C82.2664 25.3633 81.9082 25.1501 81.5756 24.7237L71.2903 11.4705H71.8276V24.2887C71.8276 25.0051 71.4694 25.3633 70.753 25.3633Z" fill="#E1E1E6"/>
<path d="M88.2236 25.261C87.5413 24.9966 87.3366 24.5275 87.6095 23.8538L93.6988 8.86076C93.9547 8.29788 94.3555 8.01645 94.9013 8.01645H94.9525C95.5068 8.04203 95.8821 8.32347 96.0782 8.86076L102.27 23.8538C102.543 24.5275 102.347 24.9966 101.681 25.261C101.008 25.5253 100.539 25.3292 100.274 24.6725L98.8926 21.3208H90.9228L89.6052 24.6725C89.3408 25.3377 88.8802 25.5339 88.2236 25.261ZM91.7671 19.1716H98.0099L94.8246 11.4193L91.7671 19.1716Z" fill="#E1E1E6"/>
<path d="M107.157 25.3633C106.441 25.3633 106.083 25.0051 106.083 24.2887V9.09103C106.083 8.37464 106.441 8.01645 107.157 8.01645C107.524 8.01645 107.882 8.22966 108.232 8.65608L118.517 21.9093H117.98V9.09103C117.98 8.37464 118.338 8.01645 119.054 8.01645C119.771 8.01645 120.129 8.37464 120.129 9.09103V24.2887C120.129 25.0051 119.771 25.3633 119.054 25.3633C118.67 25.3633 118.312 25.1501 117.98 24.7237L107.694 11.4705H108.232V24.2887C108.232 25.0051 107.873 25.3633 107.157 25.3633Z" fill="#E1E1E6"/>
<path d="M130.563 25.3633C128.61 25.3633 127.165 24.8985 126.227 23.9689C125.297 23.0308 124.832 21.5852 124.832 19.6322V13.7476C124.832 11.7775 125.297 10.3277 126.227 9.39805C127.156 8.45993 128.593 7.99939 130.538 8.01645H133.634C135.237 8.01645 136.461 8.34905 137.305 9.01427C138.15 9.67096 138.64 10.7114 138.776 12.1357C138.828 12.4939 138.759 12.7668 138.572 12.9544C138.384 13.142 138.111 13.2359 137.753 13.2359C137.105 13.2359 136.73 12.8777 136.627 12.1613C136.542 11.3767 136.269 10.8479 135.808 10.575C135.356 10.3021 134.632 10.1656 133.634 10.1656H130.538C129.634 10.1571 128.922 10.2594 128.402 10.4726C127.89 10.6858 127.523 11.0568 127.301 11.5856C127.088 12.1058 126.982 12.8265 126.982 13.7476V19.6322C126.982 20.5447 127.088 21.2611 127.301 21.7814C127.523 22.3016 127.894 22.6726 128.414 22.8943C128.935 23.1075 129.651 23.2141 130.563 23.2141H133.634C134.632 23.2141 135.356 23.0777 135.808 22.8048C136.269 22.5233 136.542 21.9946 136.627 21.2185C136.73 20.5021 137.105 20.1439 137.753 20.1439C138.111 20.1439 138.384 20.2377 138.572 20.4253C138.759 20.613 138.828 20.8859 138.776 21.2441C138.64 22.6768 138.15 23.7216 137.305 24.3783C136.461 25.035 135.237 25.3633 133.634 25.3633H130.563Z" fill="#E1E1E6"/>
<path d="M144.336 25.3633C143.619 25.3633 143.261 25.0051 143.261 24.2887V9.09103C143.261 8.37464 143.619 8.01645 144.336 8.01645H153.521C154.237 8.01645 154.595 8.37464 154.595 9.09103C154.595 9.80742 154.237 10.1656 153.521 10.1656H145.41V15.5385H150.502C151.218 15.5385 151.576 15.8967 151.576 16.6131C151.576 17.3295 151.218 17.6877 150.502 17.6877H145.41V23.2141H153.521C154.237 23.2141 154.595 23.5723 154.595 24.2887C154.595 25.0051 154.237 25.3633 153.521 25.3633H144.336Z" fill="#E1E1E6"/>
<path d="M171.443 25.3633C169.593 25.3633 168.241 24.9369 167.388 24.084C166.535 23.2312 166.109 21.8794 166.109 20.0288V14.2081C166.109 12.3404 166.531 10.9843 167.375 10.14C168.228 9.29571 169.575 8.87355 171.418 8.87355H174.513C176.083 8.87355 177.251 9.2019 178.019 9.85859C178.786 10.5068 179.208 11.5515 179.285 12.9928C179.311 13.2231 179.264 13.3979 179.144 13.5173C179.034 13.6367 178.867 13.6964 178.645 13.6964C178.219 13.6964 177.985 13.4704 177.942 13.0184C177.882 11.9608 177.592 11.2317 177.072 10.8308C176.552 10.4215 175.699 10.2168 174.513 10.2168H171.418C170.437 10.2168 169.657 10.3447 169.077 10.6006C168.497 10.8479 168.079 11.2658 167.823 11.8542C167.576 12.4342 167.452 13.2188 167.452 14.2081V20.0288C167.452 21.0181 167.58 21.8027 167.836 22.3826C168.092 22.9625 168.509 23.3804 169.089 23.6363C169.669 23.8921 170.454 24.0201 171.443 24.0201H174.513C175.699 24.0201 176.552 23.8196 177.072 23.4188C177.592 23.0094 177.882 22.276 177.942 21.2185C177.985 20.7665 178.219 20.5405 178.645 20.5405C178.867 20.5405 179.034 20.6044 179.144 20.7324C179.264 20.8518 179.311 21.0223 179.285 21.2441C179.208 22.6854 178.786 23.7344 178.019 24.3911C177.251 25.0392 176.083 25.3633 174.513 25.3633H171.443Z" fill="#E1E1E6"/>
<path d="M186.718 25.3633C185.123 25.3633 183.954 24.9966 183.212 24.2631C182.471 23.5212 182.1 22.357 182.1 20.7707V17.8796C182.1 16.2677 182.471 15.0951 183.212 14.3616C183.954 13.6196 185.123 13.2572 186.718 13.2742H188.816C190.41 13.2742 191.575 13.6452 192.308 14.3872C193.05 15.1206 193.421 16.2848 193.421 17.8796V20.7451C193.421 22.34 193.05 23.5084 192.308 24.2503C191.575 24.9923 190.41 25.3633 188.816 25.3633H186.718ZM183.443 20.7707C183.443 21.9732 183.682 22.8176 184.159 23.3037C184.645 23.7813 185.498 24.0201 186.718 24.0201H188.816C190.035 24.0201 190.884 23.7813 191.361 23.3037C191.839 22.8176 192.078 21.9647 192.078 20.7451V17.8796C192.078 16.66 191.839 15.8114 191.361 15.3338C190.884 14.8563 190.035 14.6175 188.816 14.6175H186.718C185.899 14.6089 185.251 14.707 184.773 14.9117C184.296 15.1164 183.954 15.4575 183.75 15.9351C183.545 16.4127 183.443 17.0609 183.443 17.8796V20.7707Z" fill="#E1E1E6"/>
<path d="M198.539 25.3633C198.087 25.3633 197.861 25.1373 197.861 24.6853V13.9394C197.861 13.496 198.087 13.2742 198.539 13.2742C198.983 13.2742 199.204 13.496 199.204 13.9394V15.1675C200.015 13.9053 201.481 13.2742 203.605 13.2742H204.321C205.916 13.2742 207.08 13.6452 207.814 14.3872C208.556 15.1206 208.927 16.2848 208.927 17.8796V24.6853C208.927 25.1373 208.705 25.3633 208.262 25.3633C207.809 25.3633 207.583 25.1373 207.583 24.6853V17.8796C207.583 16.66 207.34 15.8114 206.854 15.3338C206.377 14.8563 205.532 14.6175 204.321 14.6175H203.605C202.283 14.6175 201.243 14.8264 200.484 15.2443C199.725 15.6622 199.298 16.3146 199.204 17.2016V24.6853C199.204 25.1373 198.983 25.3633 198.539 25.3633Z" fill="#E1E1E6"/>
<path d="M218.415 25.3633C216.846 25.3633 215.699 25.0008 214.974 24.2759C214.249 23.551 213.886 22.4082 213.886 20.8475V14.6175H212.364C211.912 14.6175 211.686 14.3915 211.686 13.9394C211.686 13.496 211.912 13.2742 212.364 13.2742H213.886V10.5238C213.886 10.0718 214.108 9.8458 214.552 9.8458C215.004 9.8458 215.23 10.0718 215.23 10.5238V13.2742H218.441C218.884 13.2742 219.106 13.496 219.106 13.9394C219.106 14.3915 218.884 14.6175 218.441 14.6175H215.23V20.8475C215.23 22.0415 215.46 22.8687 215.921 23.3293C216.39 23.7898 217.221 24.0201 218.415 24.0201C218.662 24.0201 218.837 24.0755 218.94 24.1864C219.05 24.2972 219.106 24.4635 219.106 24.6853C219.106 25.1373 218.876 25.3633 218.415 25.3633Z" fill="#E1E1E6"/>
<path d="M223.325 25.3633C222.873 25.3633 222.647 25.1373 222.647 24.6853V13.9394C222.647 13.496 222.873 13.2742 223.325 13.2742C223.768 13.2742 223.99 13.496 223.99 13.9394V15.9095C224.434 15.0567 225.073 14.4042 225.909 13.9522C226.753 13.5002 227.751 13.2742 228.902 13.2742C229.354 13.2742 229.58 13.496 229.58 13.9394C229.58 14.3915 229.354 14.6175 228.902 14.6175C227.384 14.6175 226.207 14.9629 225.372 15.6537C224.536 16.3359 224.075 17.3124 223.99 18.5832V24.6853C223.99 25.1373 223.768 25.3633 223.325 25.3633Z" fill="#E1E1E6"/>
<path d="M236.064 25.3633C234.47 25.3633 233.301 24.9966 232.559 24.2631C231.817 23.5212 231.446 22.357 231.446 20.7707V17.8796C231.446 16.2677 231.817 15.0951 232.559 14.3616C233.301 13.6196 234.47 13.2572 236.064 13.2742H238.162C239.757 13.2742 240.921 13.6452 241.655 14.3872C242.397 15.1206 242.768 16.2848 242.768 17.8796V20.7451C242.768 22.34 242.397 23.5084 241.655 24.2503C240.921 24.9923 239.757 25.3633 238.162 25.3633H236.064ZM232.789 20.7707C232.789 21.9732 233.028 22.8176 233.506 23.3037C233.992 23.7813 234.845 24.0201 236.064 24.0201H238.162C239.382 24.0201 240.231 23.7813 240.708 23.3037C241.186 22.8176 241.424 21.9647 241.424 20.7451V17.8796C241.424 16.66 241.186 15.8114 240.708 15.3338C240.231 14.8563 239.382 14.6175 238.162 14.6175H236.064C235.246 14.6089 234.597 14.707 234.12 14.9117C233.642 15.1164 233.301 15.4575 233.096 15.9351C232.892 16.4127 232.789 17.0609 232.789 17.8796V20.7707Z" fill="#E1E1E6"/>
<path d="M250.726 25.3633C249.515 25.3633 248.623 25.0819 248.052 24.519C247.489 23.9561 247.208 23.0734 247.208 21.8709V8.28509C247.208 7.84161 247.434 7.61987 247.886 7.61987C248.329 7.61987 248.551 7.84161 248.551 8.28509V21.8709C248.551 22.6982 248.705 23.2653 249.012 23.5723C249.319 23.8708 249.886 24.0201 250.713 24.0201C251.173 24.0201 251.404 24.2418 251.404 24.6853C251.412 25.1373 251.186 25.3633 250.726 25.3633Z" fill="#E1E1E6"/>
</svg>
